<svg width="158" height="49" viewBox="0 0 158 49" fill="none" xmlns="http://www.w3.org/2000/svg">
<path d="M12.3017 29.2805C11.273 29.2805 10.3285 29.1683 9.46822 28.9439C8.61725 28.7195 7.8972 28.4109 7.30806 28.0181V24.1747C8.15903 24.6516 8.9913 25.0257 9.80487 25.2969C10.6278 25.5587 11.4694 25.6896 12.3297 25.6896C12.8066 25.6896 13.2462 25.6475 13.6483 25.5634C14.0597 25.4699 14.4151 25.3296 14.7143 25.1426C15.0136 24.9556 15.2473 24.7218 15.4157 24.4412C15.584 24.1607 15.6681 23.8334 15.6681 23.4593C15.6681 22.9263 15.5606 22.4821 15.3455 22.1268C15.1398 21.7621 14.8499 21.4254 14.4759 21.1168C14.1112 20.8082 13.6857 20.4763 13.1994 20.1209C12.629 19.7095 12.0726 19.2419 11.5302 18.7182C10.9972 18.1945 10.5576 17.5867 10.2116 16.8947C9.86565 16.1934 9.69265 15.3751 9.69265 14.44C9.69265 13.5236 9.8563 12.6866 10.1836 11.9292C10.5202 11.1717 10.9972 10.5124 11.6143 9.95135C12.2315 9.39027 12.9703 8.96011 13.8306 8.66087C14.7003 8.35227 15.6681 8.19797 16.7342 8.19797C17.7909 8.19797 18.7681 8.31487 19.6658 8.54865C20.5729 8.77308 21.4519 9.11908 22.3029 9.58665L20.774 12.8549C20.0446 12.5089 19.3479 12.2518 18.684 12.0835C18.0294 11.9058 17.3794 11.8169 16.7342 11.8169C16.3508 11.8169 15.9954 11.873 15.6681 11.9853C15.3502 12.0881 15.0697 12.2424 14.8265 12.4482C14.5927 12.6445 14.4104 12.883 14.2795 13.1635C14.1486 13.4441 14.0831 13.762 14.0831 14.1174C14.0831 14.6036 14.1813 15.0198 14.3777 15.3658C14.5834 15.7118 14.8733 16.0344 15.2473 16.3336C15.6307 16.6235 16.089 16.9461 16.622 17.3015C17.3794 17.7971 18.006 18.3301 18.5016 18.9006C19.0066 19.4616 19.3806 20.0742 19.6238 20.7381C19.8762 21.402 20.0025 22.1361 20.0025 22.9403C20.0025 24.0157 19.8014 24.9509 19.3993 25.7457C18.9972 26.5406 18.4408 27.1999 17.7301 27.7235C17.0288 28.2472 16.2105 28.64 15.2754 28.9018C14.3496 29.1543 13.3584 29.2805 12.3017 29.2805ZM28.7104 29.2805C27.4854 29.2805 26.4053 29.0608 25.4702 28.6213C24.5444 28.1724 23.8197 27.4991 23.296 26.6014C22.7724 25.7037 22.5105 24.5768 22.5105 23.2209C22.5105 21.9117 22.6975 20.6493 23.0716 19.4336C23.4456 18.2086 24.0021 17.1145 24.7408 16.1513C25.4889 15.1881 26.4053 14.426 27.4901 13.8649C28.5842 13.3038 29.8466 13.0233 31.2774 13.0233C33.0354 13.0233 34.3493 13.4254 35.219 14.2296C36.098 15.0244 36.5375 16.0484 36.5375 17.3015C36.5375 18.1244 36.3505 18.8725 35.9764 19.5458C35.6117 20.2191 35.0553 20.7989 34.3072 21.2852C33.5591 21.7621 32.6193 22.1315 31.4878 22.3933C30.3563 22.6458 29.0284 22.772 27.5041 22.772H26.7887C26.7794 22.8842 26.77 22.9824 26.7607 23.0666C26.7607 23.1507 26.7607 23.2443 26.7607 23.3471C26.7607 24.1887 27.0038 24.8574 27.4901 25.353C27.9764 25.8486 28.6637 26.0964 29.5521 26.0964C30.375 26.0964 31.1231 26.0029 31.7964 25.8159C32.4697 25.6288 33.2645 25.3203 34.181 24.8901V28.0742C33.3581 28.4763 32.5211 28.7802 31.6701 28.986C30.8192 29.1824 29.8326 29.2805 28.7104 29.2805ZM27.2516 19.9245H27.8829C28.9676 19.9245 29.8466 19.8076 30.5199 19.5739C31.2026 19.3401 31.6982 19.0315 32.0068 18.6481C32.3247 18.2647 32.4837 17.8485 32.4837 17.3997C32.4837 16.9508 32.3528 16.6188 32.0909 16.4038C31.8385 16.1793 31.4784 16.0671 31.0109 16.0671C30.4872 16.0671 29.9682 16.2308 29.4539 16.5581C28.9396 16.8854 28.486 17.3389 28.0933 17.9187C27.7005 18.4985 27.42 19.1671 27.2516 19.9245ZM37.0677 29L40.3921 13.3178H43.6183L43.3238 16.2214H43.4781C43.8989 15.5575 44.3571 14.987 44.8527 14.5101C45.3483 14.0332 45.886 13.6685 46.4658 13.416C47.0456 13.1542 47.6768 13.0233 48.3595 13.0233C48.5839 13.0233 48.8223 13.0373 49.0748 13.0653C49.3367 13.0934 49.5471 13.1308 49.706 13.1776L48.7803 17.2454C48.6306 17.1893 48.4296 17.1378 48.1771 17.0911C47.934 17.0443 47.6675 17.021 47.3776 17.021C46.8539 17.021 46.3536 17.1285 45.8767 17.3436C45.3998 17.5493 44.9602 17.8579 44.5581 18.2694C44.156 18.6808 43.8007 19.1998 43.4921 19.8263C43.1928 20.4435 42.9544 21.1636 42.7767 21.9865L41.2898 29H37.0677ZM51.2883 29L49.3526 13.3178H53.4905L54.1217 21.5376C54.1404 21.7714 54.1545 22.08 54.1638 22.4634C54.1825 22.8375 54.1965 23.2302 54.2059 23.6417C54.2152 24.0531 54.2199 24.4319 54.2199 24.7779H54.3602C54.4724 24.4599 54.5987 24.1046 54.7389 23.7118C54.8885 23.3097 55.0382 22.9263 55.1878 22.5616C55.3374 22.1876 55.473 21.8836 55.5946 21.6499L59.7606 13.3178H64.2913L55.819 29H51.2883ZM62.451 29L65.7754 13.3178H69.9975L66.6731 29H62.451ZM68.5667 11.3681C67.9682 11.3681 67.4633 11.2372 67.0518 10.9753C66.6497 10.7135 66.4487 10.2693 66.4487 9.64275C66.4487 9.10038 66.5468 8.64684 66.7432 8.28214C66.949 7.91744 67.2435 7.64157 67.6269 7.45454C68.0103 7.26752 68.4685 7.174 69.0016 7.174C69.5626 7.174 70.0489 7.29557 70.4604 7.53871C70.8812 7.78184 71.0916 8.22135 71.0916 8.85724C71.0916 9.60535 70.8859 10.2132 70.4744 10.6808C70.0629 11.139 69.4271 11.3681 68.5667 11.3681ZM74.7639 29.2805C73.7633 29.2805 72.8889 29.2104 72.1408 29.0701C71.4021 28.9299 70.7101 28.6961 70.0648 28.3688V24.8901C70.7662 25.2922 71.4862 25.6055 72.225 25.8299C72.9731 26.045 73.7446 26.1525 74.5394 26.1525C74.9789 26.1525 75.3904 26.0917 75.7738 25.9702C76.1666 25.8486 76.4845 25.6616 76.7276 25.4091C76.9708 25.1566 77.0923 24.8387 77.0923 24.4553C77.0923 24.1934 77.0316 23.9596 76.91 23.7539C76.7884 23.5482 76.5546 23.3237 76.2086 23.0806C75.872 22.8281 75.381 22.5242 74.7358 22.1689C74.0906 21.8042 73.5388 21.4301 73.0806 21.0467C72.6318 20.6633 72.2858 20.2285 72.0426 19.7422C71.8088 19.2559 71.6919 18.6855 71.6919 18.0309C71.6919 16.9461 71.9304 16.0344 72.4073 15.2956C72.8842 14.5475 73.5669 13.9818 74.4553 13.5984C75.353 13.215 76.4237 13.0233 77.6674 13.0233C78.5745 13.0233 79.4489 13.1261 80.2905 13.3319C81.1321 13.5376 81.955 13.8789 82.7592 14.3558L81.3706 17.3716C80.8188 17.035 80.2297 16.7544 79.6032 16.53C78.986 16.3056 78.3688 16.1934 77.7516 16.1934C77.2934 16.1934 76.8819 16.3009 76.5172 16.516C76.1525 16.7311 75.9702 17.063 75.9702 17.5119C75.9702 17.755 76.0356 17.9795 76.1666 18.1852C76.2975 18.3816 76.5172 18.5826 76.8258 18.7884C77.1438 18.9941 77.5693 19.2372 78.1023 19.5178C78.7382 19.8451 79.2992 20.2098 79.7855 20.6119C80.2811 21.0046 80.6692 21.4628 80.9498 21.9865C81.2303 22.5008 81.3706 23.1133 81.3706 23.824C81.3706 25.021 81.0994 26.0263 80.557 26.8398C80.0146 27.6441 79.2478 28.2519 78.2566 28.6634C77.2747 29.0748 76.1104 29.2805 74.7639 29.2805Z" fill="#273A69"/>
<path d="M91.9441 29.2805C89.5595 29.2805 87.6986 28.6026 86.3614 27.2466C85.0241 25.8813 84.3555 23.8989 84.3555 21.2992C84.3555 19.9058 84.5192 18.5592 84.8465 17.2594C85.1737 15.9596 85.66 14.7626 86.3053 13.6685C86.9505 12.565 87.7547 11.6019 88.7179 10.7789C89.6904 9.95602 90.8126 9.31546 92.0844 8.85724C93.3562 8.39903 94.7822 8.16992 96.3626 8.16992C97.4193 8.16992 98.4106 8.28214 99.3363 8.50657C100.262 8.731 101.188 9.08168 102.114 9.55859L100.501 13.0794C99.8179 12.7053 99.1259 12.4061 98.4246 12.1816C97.7326 11.9572 96.9798 11.845 96.1662 11.845C94.9038 11.845 93.805 12.1162 92.8699 12.6586C91.9441 13.1916 91.1726 13.9023 90.5554 14.7907C89.9382 15.6697 89.4754 16.6469 89.1668 17.7223C88.8675 18.7977 88.7179 19.8778 88.7179 20.9625C88.7179 21.9725 88.8582 22.8281 89.1387 23.5295C89.4193 24.2215 89.8634 24.7451 90.4713 25.1005C91.0885 25.4558 91.8833 25.6335 92.8559 25.6335C93.3328 25.6335 93.7489 25.6008 94.1043 25.5353C94.4596 25.4699 94.8383 25.3904 95.2405 25.2969L96.1662 21.1028H92.421L93.2065 17.4838H101.104L98.8314 28.1724C97.8962 28.4904 96.905 28.7569 95.8576 28.9719C94.8103 29.1777 93.5058 29.2805 91.9441 29.2805ZM109.012 29.2805C107.834 29.2805 106.791 29.0374 105.884 28.5511C104.986 28.0649 104.28 27.3729 103.766 26.4751C103.261 25.5681 103.009 24.4927 103.009 23.2489C103.009 22.1361 103.116 21.0748 103.331 20.0648C103.556 19.0455 103.888 18.1104 104.327 17.2594C104.776 16.3991 105.332 15.6557 105.996 15.0291C106.67 14.3932 107.45 13.9023 108.339 13.5563C109.227 13.2009 110.228 13.0233 111.341 13.0233C112.556 13.0233 113.608 13.2711 114.497 13.7667C115.385 14.253 116.072 14.959 116.559 15.8848C117.045 16.8105 117.288 17.928 117.288 19.2372C117.288 20.3033 117.181 21.3319 116.965 22.3232C116.76 23.305 116.442 24.2215 116.012 25.0724C115.581 25.9141 115.039 26.6528 114.384 27.2887C113.73 27.9152 112.954 28.4062 112.056 28.7615C111.168 29.1075 110.153 29.2805 109.012 29.2805ZM109.363 25.8439C109.83 25.8439 110.256 25.727 110.639 25.4933C111.023 25.2501 111.364 24.9181 111.663 24.4973C111.962 24.0672 112.21 23.5762 112.407 23.0245C112.612 22.4634 112.767 21.8603 112.87 21.215C112.982 20.5698 113.038 19.9105 113.038 19.2372C113.038 18.7042 112.972 18.2319 112.842 17.8205C112.72 17.3997 112.51 17.0724 112.21 16.8386C111.92 16.5955 111.528 16.4739 111.032 16.4739C110.518 16.4739 110.055 16.6188 109.643 16.9087C109.241 17.1893 108.891 17.568 108.591 18.0449C108.292 18.5218 108.044 19.0549 107.848 19.644C107.652 20.2331 107.502 20.841 107.399 21.4675C107.306 22.0847 107.259 22.6785 107.259 23.2489C107.259 24.0999 107.432 24.7451 107.778 25.1847C108.124 25.6242 108.652 25.8439 109.363 25.8439Z" fill="#BCC7FF"/>
<path d="M0 39.5L5.38636 31.4205H109.074C118.051 31.4205 118.949 22.4432 118.949 22.4432H131.966V12.5682L158 24.6875L131.966 48.4773V39.5H0Z" fill="#273A69"/>
</svg>
