<svg width="158" height="49" viewBox="0 0 158 49" fill="none" xmlns="http://www.w3.org/2000/svg">
<path d="M12.3017 29.7578C11.273 29.7578 10.3285 29.6456 9.46822 29.4212C8.61725 29.1967 7.8972 28.8881 7.30806 28.4954V24.652C8.15903 25.1289 8.9913 25.503 9.80487 25.7741C10.6278 26.036 11.4694 26.1669 12.3297 26.1669C12.8066 26.1669 13.2462 26.1248 13.6483 26.0407C14.0597 25.9471 14.4151 25.8069 14.7143 25.6198C15.0136 25.4328 15.2473 25.199 15.4157 24.9185C15.584 24.638 15.6681 24.3107 15.6681 23.9366C15.6681 23.4036 15.5606 22.9594 15.3455 22.604C15.1398 22.2393 14.8499 21.9027 14.4759 21.5941C14.1112 21.2855 13.6857 20.9535 13.1994 20.5982C12.629 20.1867 12.0726 19.7192 11.5302 19.1955C10.9972 18.6718 10.5576 18.064 10.2116 17.372C9.86565 16.6706 9.69265 15.8524 9.69265 14.9172C9.69265 14.0008 9.8563 13.1639 10.1836 12.4064C10.5202 11.649 10.9972 10.9897 11.6143 10.4286C12.2315 9.86753 12.9703 9.43737 13.8306 9.13813C14.7003 8.82954 15.6681 8.67524 16.7342 8.67524C17.7909 8.67524 18.7681 8.79213 19.6658 9.02591C20.5729 9.25035 21.4519 9.59635 22.3029 10.0639L20.774 13.3322C20.0446 12.9862 19.3479 12.729 18.684 12.5607C18.0294 12.383 17.3794 12.2942 16.7342 12.2942C16.3508 12.2942 15.9954 12.3503 15.6681 12.4625C15.3502 12.5654 15.0697 12.7197 14.8265 12.9254C14.5927 13.1218 14.4104 13.3603 14.2795 13.6408C14.1486 13.9213 14.0831 14.2393 14.0831 14.5946C14.0831 15.0809 14.1813 15.497 14.3777 15.843C14.5834 16.189 14.8733 16.5117 15.2473 16.8109C15.6307 17.1008 16.089 17.4234 16.622 17.7788C17.3794 18.2744 18.006 18.8074 18.5016 19.3778C19.0066 19.9389 19.3806 20.5514 19.6238 21.2154C19.8762 21.8793 20.0025 22.6134 20.0025 23.4176C20.0025 24.493 19.8014 25.4281 19.3993 26.223C18.9972 27.0179 18.4408 27.6771 17.7301 28.2008C17.0288 28.7245 16.2105 29.1172 15.2754 29.3791C14.3496 29.6316 13.3584 29.7578 12.3017 29.7578ZM28.7104 29.7578C27.4854 29.7578 26.4053 29.538 25.4702 29.0985C24.5444 28.6497 23.8197 27.9764 23.296 27.0786C22.7724 26.1809 22.5105 25.0541 22.5105 23.6981C22.5105 22.389 22.6975 21.1265 23.0716 19.9109C23.4456 18.6858 24.0021 17.5917 24.7408 16.6285C25.4889 15.6654 26.4053 14.9032 27.4901 14.3421C28.5842 13.7811 29.8466 13.5005 31.2774 13.5005C33.0354 13.5005 34.3493 13.9026 35.219 14.7068C36.098 15.5017 36.5375 16.5257 36.5375 17.7788C36.5375 18.6017 36.3505 19.3498 35.9764 20.0231C35.6117 20.6964 35.0553 21.2762 34.3072 21.7624C33.5591 22.2393 32.6193 22.6087 31.4878 22.8706C30.3563 23.123 29.0284 23.2493 27.5041 23.2493H26.7887C26.7794 23.3615 26.77 23.4597 26.7607 23.5438C26.7607 23.628 26.7607 23.7215 26.7607 23.8244C26.7607 24.666 27.0038 25.3346 27.4901 25.8302C27.9764 26.3259 28.6637 26.5737 29.5521 26.5737C30.375 26.5737 31.1231 26.4802 31.7964 26.2931C32.4697 26.1061 33.2645 25.7975 34.181 25.3674V28.5515C33.3581 28.9536 32.5211 29.2575 31.6701 29.4632C30.8192 29.6596 29.8326 29.7578 28.7104 29.7578ZM27.2516 20.4018H27.8829C28.9676 20.4018 29.8466 20.2849 30.5199 20.0511C31.2026 19.8173 31.6982 19.5088 32.0068 19.1253C32.3247 18.7419 32.4837 18.3258 32.4837 17.8769C32.4837 17.4281 32.3528 17.0961 32.0909 16.881C31.8385 16.6566 31.4784 16.5444 31.0109 16.5444C30.4872 16.5444 29.9682 16.708 29.4539 17.0353C28.9396 17.3626 28.486 17.8162 28.0933 18.3959C27.7005 18.9757 27.42 19.6443 27.2516 20.4018ZM37.0677 29.4773L40.3921 13.7951H43.6183L43.3238 16.6987H43.4781C43.8989 16.0347 44.3571 15.4643 44.8527 14.9874C45.3483 14.5105 45.886 14.1458 46.4658 13.8933C47.0456 13.6314 47.6768 13.5005 48.3595 13.5005C48.5839 13.5005 48.8223 13.5146 49.0748 13.5426C49.3367 13.5707 49.5471 13.6081 49.706 13.6548L48.7803 17.7226C48.6306 17.6665 48.4296 17.6151 48.1771 17.5684C47.934 17.5216 47.6675 17.4982 47.3776 17.4982C46.8539 17.4982 46.3536 17.6058 45.8767 17.8208C45.3998 18.0266 44.9602 18.3352 44.5581 18.7466C44.156 19.1581 43.8007 19.6771 43.4921 20.3036C43.1928 20.9208 42.9544 21.6409 42.7767 22.4638L41.2898 29.4773H37.0677ZM51.2883 29.4773L49.3526 13.7951H53.4905L54.1217 22.0149C54.1404 22.2487 54.1545 22.5573 54.1638 22.9407C54.1825 23.3147 54.1965 23.7075 54.2059 24.119C54.2152 24.5304 54.2199 24.9091 54.2199 25.2551H54.3602C54.4724 24.9372 54.5987 24.5818 54.7389 24.1891C54.8885 23.787 55.0382 23.4036 55.1878 23.0389C55.3374 22.6648 55.473 22.3609 55.5946 22.1271L59.7606 13.7951H64.2913L55.819 29.4773H51.2883ZM62.451 29.4773L65.7754 13.7951H69.9975L66.6731 29.4773H62.451ZM68.5667 11.8453C67.9682 11.8453 67.4633 11.7144 67.0518 11.4526C66.6497 11.1907 66.4487 10.7466 66.4487 10.12C66.4487 9.57764 66.5468 9.1241 66.7432 8.7594C66.949 8.3947 67.2435 8.11884 67.6269 7.93181C68.0103 7.74478 68.4685 7.65127 69.0016 7.65127C69.5626 7.65127 70.0489 7.77284 70.4604 8.01597C70.8812 8.25911 71.0916 8.69862 71.0916 9.33451C71.0916 10.0826 70.8859 10.6905 70.4744 11.158C70.0629 11.6162 69.4271 11.8453 68.5667 11.8453ZM74.7639 29.7578C73.7633 29.7578 72.8889 29.6877 72.1408 29.5474C71.4021 29.4071 70.7101 29.1733 70.0648 28.846V25.3674C70.7662 25.7695 71.4862 26.0827 72.225 26.3072C72.9731 26.5222 73.7446 26.6298 74.5394 26.6298C74.9789 26.6298 75.3904 26.569 75.7738 26.4474C76.1666 26.3259 76.4845 26.1388 76.7276 25.8864C76.9708 25.6339 77.0923 25.3159 77.0923 24.9325C77.0923 24.6707 77.0316 24.4369 76.91 24.2312C76.7884 24.0254 76.5546 23.801 76.2086 23.5579C75.872 23.3054 75.381 23.0015 74.7358 22.6461C74.0906 22.2814 73.5388 21.9074 73.0806 21.524C72.6318 21.1406 72.2858 20.7057 72.0426 20.2195C71.8088 19.7332 71.6919 19.1628 71.6919 18.5082C71.6919 17.4234 71.9304 16.5117 72.4073 15.7729C72.8842 15.0248 73.5669 14.459 74.4553 14.0756C75.353 13.6922 76.4237 13.5005 77.6674 13.5005C78.5745 13.5005 79.4489 13.6034 80.2905 13.8091C81.1321 14.0148 81.955 14.3562 82.7592 14.8331L81.3706 17.8489C80.8188 17.5122 80.2297 17.2317 79.6032 17.0073C78.986 16.7828 78.3688 16.6706 77.7516 16.6706C77.2934 16.6706 76.8819 16.7782 76.5172 16.9932C76.1525 17.2083 75.9702 17.5403 75.9702 17.9892C75.9702 18.2323 76.0356 18.4567 76.1666 18.6625C76.2975 18.8588 76.5172 19.0599 76.8258 19.2656C77.1438 19.4713 77.5693 19.7145 78.1023 19.995C78.7382 20.3223 79.2992 20.687 79.7855 21.0891C80.2811 21.4819 80.6692 21.9401 80.9498 22.4638C81.2303 22.9781 81.3706 23.5906 81.3706 24.3013C81.3706 25.4983 81.0994 26.5035 80.557 27.3171C80.0146 28.1213 79.2478 28.7292 78.2566 29.1406C77.2747 29.5521 76.1104 29.7578 74.7639 29.7578Z" fill="white"/>
<path d="M91.9441 29.7578C89.5595 29.7578 87.6986 29.0798 86.3614 27.7239C85.0241 26.3586 84.3555 24.3761 84.3555 21.7764C84.3555 20.3831 84.5192 19.0365 84.8465 17.7367C85.1737 16.4368 85.66 15.2399 86.3053 14.1458C86.9505 13.0423 87.7547 12.0791 88.7179 11.2562C89.6904 10.4333 90.8126 9.79272 92.0844 9.33451C93.3562 8.87629 94.7822 8.64719 96.3626 8.64719C97.4193 8.64719 98.4106 8.7594 99.3363 8.98383C100.262 9.20826 101.188 9.55894 102.114 10.0359L100.501 13.5566C99.8179 13.1826 99.1259 12.8833 98.4246 12.6589C97.7326 12.4345 96.9798 12.3223 96.1662 12.3223C94.9038 12.3223 93.805 12.5934 92.8699 13.1358C91.9441 13.6688 91.1726 14.3795 90.5554 15.2679C89.9382 16.1469 89.4754 17.1242 89.1668 18.1996C88.8675 19.275 88.7179 20.355 88.7179 21.4398C88.7179 22.4497 88.8582 23.3054 89.1387 24.0067C89.4193 24.6987 89.8634 25.2224 90.4713 25.5778C91.0885 25.9331 91.8833 26.1108 92.8559 26.1108C93.3328 26.1108 93.7489 26.0781 94.1043 26.0126C94.4596 25.9471 94.8383 25.8677 95.2405 25.7741L96.1662 21.5801H92.421L93.2065 17.9611H101.104L98.8314 28.6497C97.8962 28.9676 96.905 29.2341 95.8576 29.4492C94.8103 29.6549 93.5058 29.7578 91.9441 29.7578ZM109.012 29.7578C107.834 29.7578 106.791 29.5147 105.884 29.0284C104.986 28.5421 104.28 27.8501 103.766 26.9524C103.261 26.0453 103.009 24.9699 103.009 23.7262C103.009 22.6134 103.116 21.552 103.331 20.5421C103.556 19.5228 103.888 18.5876 104.327 17.7367C104.776 16.8764 105.332 16.1329 105.996 15.5064C106.67 14.8705 107.45 14.3795 108.339 14.0335C109.227 13.6782 110.228 13.5005 111.341 13.5005C112.556 13.5005 113.608 13.7483 114.497 14.244C115.385 14.7302 116.072 15.4362 116.559 16.362C117.045 17.2878 117.288 18.4053 117.288 19.7145C117.288 20.7805 117.181 21.8092 116.965 22.8004C116.76 23.7823 116.442 24.6987 116.012 25.5497C115.581 26.3913 115.039 27.1301 114.384 27.766C113.73 28.3925 112.954 28.8835 112.056 29.2388C111.168 29.5848 110.153 29.7578 109.012 29.7578ZM109.363 26.3212C109.83 26.3212 110.256 26.2043 110.639 25.9705C111.023 25.7274 111.364 25.3954 111.663 24.9746C111.962 24.5444 112.21 24.0535 112.407 23.5018C112.612 22.9407 112.767 22.3375 112.87 21.6923C112.982 21.047 113.038 20.3878 113.038 19.7145C113.038 19.1815 112.972 18.7092 112.842 18.2978C112.72 17.8769 112.51 17.5496 112.21 17.3159C111.92 17.0727 111.528 16.9512 111.032 16.9512C110.518 16.9512 110.055 17.0961 109.643 17.386C109.241 17.6665 108.891 18.0453 108.591 18.5222C108.292 18.9991 108.044 19.5321 107.848 20.1213C107.652 20.7104 107.502 21.3182 107.399 21.9448C107.306 22.562 107.259 23.1558 107.259 23.7262C107.259 24.5772 107.432 25.2224 107.778 25.6619C108.124 26.1014 108.652 26.3212 109.363 26.3212Z" fill="#BCC7FF"/>
<path d="M0 39.9773L5.38636 31.8977H109.074C118.051 31.8977 118.949 22.9204 118.949 22.9204H131.966V13.0454L158 25.1648L131.966 48.9545V39.9773H0Z" fill="white"/>
</svg>
